<?xml version="1.0" encoding="UTF-8"?>
<!--
  Aero1553 - Data Flow (Rust, Python, C++)

  HAND-MAINTAINED. This file is the source; there is no generator to re-run.
  Edit the element for a step directly: every step, decision, branch and note
  is a <g id="..."> preceded by a comment naming it. Lanes are the <g id="lane-NN">
  bands at the top of the drawing; resize a band when you move the steps in it.

  The flow is shared by all three implementations. Function and type names are
  Rust's where the implementations differ; docs/ARCHITECTURE.md section 1 maps
  them to Python and C++.

  Connectors: an accent pill "A Next", "B DELTA", "C Commit" or "D Filter"
  continues at the step tagged with the same letter.
-->
<svg xmlns="http://www.w3.org/2000/svg" version="1.1" width="1600" height="5349" viewBox="0 0 1600 5349">
  <style>
    :root {
      --bg: #ffffff; --fg: #1f2328; --muted: #59636e; --box: #f6f8fa;
      --stroke: #8c959f; --accent: #0969da; --note: #fff8c5; --stop: #cf222e;
    }
    @media (prefers-color-scheme: dark) {
      :root {
        --bg: #0d1117; --fg: #e6edf3; --muted: #9198a1; --box: #161b22;
        --stroke: #3d444d; --accent: #4493f8; --note: #2e2a17; --stop: #f85149;
      }
    }
    text { font-family: "Segoe UI", Helvetica, Arial, sans-serif; fill: var(--fg); font-size: 13px; }
    .title { font-size: 18px; font-weight: bold; }
    .sub { fill: var(--muted); font-size: 12px; }
    .lane { fill: var(--muted); font-weight: bold; }
    .band { fill: none; stroke: var(--stroke); stroke-width: 1; stroke-dasharray: 4 4; }
    .act { fill: var(--box); stroke: var(--stroke); stroke-width: 1.2; }
    .dec { fill: var(--box); stroke: var(--accent); stroke-width: 1.2; }
    .note { fill: var(--note); stroke: var(--stroke); stroke-width: 1; }
    .nt { font-size: 12px; }
    .edge { fill: none; stroke: var(--muted); stroke-width: 1.3; marker-end: url(#arrow); }
    .noteedge { fill: none; stroke: var(--stroke); stroke-width: 1; stroke-dasharray: 3 3; }
    .lbl { fill: var(--muted); font-size: 12px; font-style: italic; }
    .stop { fill: var(--stop); }
    .stopt { fill: #ffffff; font-weight: bold; font-size: 12px; }
    .tag { fill: var(--bg); stroke: var(--accent); stroke-width: 1.5; }
    .tagt { fill: var(--accent); font-weight: bold; font-size: 12px; }
    .startdot { fill: var(--fg); }
  </style>
  <defs>
    <marker id="arrow" viewBox="0 0 10 10" refX="9" refY="5" markerWidth="8" markerHeight="8" orient="auto-start-reverse">
      <path d="M0,0 L10,5 L0,10 z" fill="var(--muted)"/>
    </marker>
  </defs>

  <rect x="0" y="0" width="1600" height="5349" fill="var(--bg)"/>

  <!-- title -->
  <g id="title">
    <text class="title" x="20" y="30">Aero1553 - Data Flow (Rust, Python, C++)</text>
    <text class="sub" x="20" y="50">Shared by all three implementations; names are Rust's where they differ. Pills: A..D are connectors, red pills are process exits.</text>
  </g>

  <!-- lane: CLI -->
  <g id="lane-00">
    <rect class="band" x="20" y="60" width="1560" height="552"/>
    <text class="lane" x="32" y="82">CLI</text>
  </g>
  <!-- lane: Merge -->
  <g id="lane-01">
    <rect class="band" x="20" y="612" width="1560" height="300"/>
    <text class="lane" x="32" y="634">Merge</text>
  </g>
  <!-- lane: Output Safety -->
  <g id="lane-02">
    <rect class="band" x="20" y="912" width="1560" height="369"/>
    <text class="lane" x="32" y="934">Output Safety</text>
  </g>
  <!-- lane: Sync -->
  <g id="lane-03">
    <rect class="band" x="20" y="1281" width="1560" height="616"/>
    <text class="lane" x="32" y="1303">Sync</text>
  </g>
  <!-- lane: Reader -->
  <g id="lane-04">
    <rect class="band" x="20" y="1897" width="1560" height="888"/>
    <text class="lane" x="32" y="1919">Reader</text>
  </g>
  <!-- lane: Structural Invariants -->
  <g id="lane-05">
    <rect class="band" x="20" y="2785" width="1560" height="464"/>
    <text class="lane" x="32" y="2807">Structural Invariants</text>
  </g>
  <!-- lane: Reader -->
  <g id="lane-06">
    <rect class="band" x="20" y="3249" width="1560" height="124"/>
    <text class="lane" x="32" y="3271">Reader</text>
  </g>
  <!-- lane: Merge -->
  <g id="lane-07">
    <rect class="band" x="20" y="3373" width="1560" height="558"/>
    <text class="lane" x="32" y="3395">Merge</text>
  </g>
  <!-- lane: Filter -->
  <g id="lane-08">
    <rect class="band" x="20" y="3931" width="1560" height="218"/>
    <text class="lane" x="32" y="3953">Filter</text>
  </g>
  <!-- lane: Order -->
  <g id="lane-09">
    <rect class="band" x="20" y="4149" width="1560" height="233"/>
    <text class="lane" x="32" y="4171">Order</text>
  </g>
  <!-- lane: Writer -->
  <g id="lane-10">
    <rect class="band" x="20" y="4382" width="1560" height="432"/>
    <text class="lane" x="32" y="4404">Writer</text>
  </g>
  <!-- lane: Output Safety -->
  <g id="lane-11">
    <rect class="band" x="20" y="4814" width="1560" height="250"/>
    <text class="lane" x="32" y="4836">Output Safety</text>
  </g>
  <!-- lane: CLI -->
  <g id="lane-12">
    <rect class="band" x="20" y="5064" width="1560" height="235"/>
    <text class="lane" x="32" y="5086">CLI</text>
  </g>

  <!-- start -->
  <g id="start">
    <circle class="startdot" cx="480" cy="110" r="10"/>
  </g>
    <path class="edge" d="M480,120 L480,154"/>
  <!-- parse arguments -->
  <g id="parse">
    <rect class="act" x="260" y="154" width="440" height="54" rx="8"/>
    <text class="t" x="480" y="177" text-anchor="middle"><tspan x="480" dy="0">Parse arguments: decode / count / dump</tspan><tspan x="480" dy="16">(cli::run)</tspan></text>
  </g>
    <path class="edge" d="M480,208 L480,242"/>
  <!-- config and log level -->
  <g id="config">
    <rect class="act" x="260" y="242" width="440" height="54" rx="8"/>
    <text class="t" x="480" y="265" text-anchor="middle"><tspan x="480" dy="0">load_config: TOML file -&gt; DecoderConfig,</tspan><tspan x="480" dy="16">then with_overrides(CLI flags); set the log level</tspan></text>
  </g>
  <!-- note: config precedence -->
  <g id="note-config">
    <path class="noteedge" d="M1180,269 L1200,269"/>
    <rect class="note" x="1200" y="255" width="370" height="52" rx="4"/>
    <text class="nt" x="1212" y="277" text-anchor="start" xml:space="preserve"><tspan x="1212" dy="0">Precedence, highest first: CLI flags, then the</tspan><tspan x="1212" dy="16">TOML config file, then built-in defaults.</tspan></text>
  </g>
    <path class="edge" d="M480,296 L480,330"/>
  <!-- resolve the input set -->
  <g id="inputs">
    <rect class="act" x="260" y="330" width="440" height="54" rx="8"/>
    <text class="t" x="480" y="353" text-anchor="middle"><tspan x="480" dy="0">resolve_inputs: positionals | --manifest | --glob</tspan><tspan x="480" dy="16">(mutually exclusive, at most 256 files -- L2-MRG-001)</tspan></text>
  </g>
    <path class="edge" d="M480,384 L480,418"/>
  <!-- open every input -->
  <g id="open">
    <rect class="act" x="260" y="418" width="440" height="54" rx="8"/>
    <text class="t" x="480" y="441" text-anchor="middle"><tspan x="480" dy="0">MieFileReader::new for each input:</tspan><tspan x="480" dy="16">the file is mapped read-only (mmap)</tspan></text>
  </g>
    <path class="edge" d="M480,472 L480,506"/>
  <!-- decision: merge? -->
  <g id="d-multi">
    <polygon class="dec" points="480,506 630,544 480,582 330,544"/>
    <text class="t" x="480" y="540" text-anchor="middle"><tspan x="480" dy="0">Two or more</tspan><tspan x="480" dy="16">inputs?</tspan></text>
  </g>
  <!-- branch: single input -->
  <g id="b-single">
    <path class="edge" d="M630,544 L760,544"/>
    <text class="lbl" x="640" y="537" text-anchor="start">no</text>
    <rect class="act" x="760" y="517" width="300" height="54" rx="8"/>
    <text class="t" x="772" y="540" text-anchor="start"><tspan x="772" dy="0">One input: the merge stage is</tspan><tspan x="772" dy="16">bypassed entirely -&gt; Output Safety</tspan></text>
  </g>
    <path class="edge" d="M480,582 L480,652"/>
    <text class="lbl" x="488" y="598" text-anchor="start">yes</text>
  <!-- merge: probe inputs -->
  <g id="merge-probe">
    <rect class="act" x="260" y="652" width="440" height="54" rx="8"/>
    <text class="t" x="480" y="675" text-anchor="middle"><tspan x="480" dy="0">MergedRecordIter::new: probe each input's</tspan><tspan x="480" dy="16">leading record</tspan></text>
  </g>
    <path class="edge" d="M480,706 L480,740"/>
  <!-- decision: incompatible merge inputs? -->
  <g id="d-compat">
    <polygon class="dec" points="480,740 630,778 480,816 330,778"/>
    <text class="t" x="480" y="774" text-anchor="middle"><tspan x="480" dy="0">Standard, freerun-leading</tspan><tspan x="480" dy="16">or mixed formats?</tspan></text>
  </g>
  <!-- branch: incompatible inputs -->
  <g id="b-compat">
    <path class="edge" d="M630,778 L760,778"/>
    <text class="lbl" x="640" y="771" text-anchor="start">yes</text>
    <rect class="act" x="760" y="751" width="300" height="54" rx="8"/>
    <text class="t" x="772" y="774" text-anchor="start"><tspan x="772" dy="0">MieError::IncompatibleMergeInputs</tspan><tspan x="772" dy="16">(L2-MRG-003)</tspan></text>
    <path class="edge" d="M1060,778 L1080,778"/>
    <rect class="stop" x="1080" y="764" width="80" height="28" rx="14"/>
    <text class="stopt" x="1120" y="783" text-anchor="middle">Exit 6</text>
  </g>
  <!-- note: why merge inputs must be IRIG -->
  <g id="note-compat">
    <path class="noteedge" d="M1180,838 L1200,838"/>
    <rect class="note" x="1200" y="824" width="370" height="68" rx="4"/>
    <text class="nt" x="1212" y="846" text-anchor="start" xml:space="preserve"><tspan x="1212" dy="0">One absolute timeline needs a shared calendar</tspan><tspan x="1212" dy="16">clock, so every input must be calendar-locked</tspan><tspan x="1212" dy="16">IRIG. Checked BEFORE any output file is created.</tspan></text>
  </g>
    <path class="edge" d="M480,816 L480,952"/>
    <text class="lbl" x="488" y="832" text-anchor="start">no</text>
  <!-- decision: input/output collision? -->
  <g id="d-collide">
    <polygon class="dec" points="480,952 630,990 480,1028 330,990"/>
    <text class="t" x="480" y="986" text-anchor="middle"><tspan x="480" dy="0">A commit target</tspan><tspan x="480" dy="16">resolves to an input?</tspan></text>
  </g>
  <!-- branch: collision -->
  <g id="b-collide">
    <path class="edge" d="M630,990 L760,990"/>
    <text class="lbl" x="640" y="983" text-anchor="start">yes</text>
    <rect class="act" x="760" y="963" width="300" height="54" rx="8"/>
    <text class="t" x="772" y="986" text-anchor="start"><tspan x="772" dy="0">MieError::InputOutputCollision</tspan><tspan x="772" dy="16">(L2-WRT-014)</tspan></text>
    <path class="edge" d="M1060,990 L1080,990"/>
    <rect class="stop" x="1080" y="976" width="80" height="28" rx="14"/>
    <text class="stopt" x="1120" y="995" text-anchor="middle">Exit 1</text>
  </g>
  <!-- note: commit targets and stdout -->
  <g id="note-targets">
    <path class="noteedge" d="M1180,980 L1200,980"/>
    <rect class="note" x="1200" y="966" width="370" height="100" rx="4"/>
    <text class="nt" x="1212" y="988" text-anchor="start" xml:space="preserve"><tspan x="1212" dy="0">Commit targets: &lt;dest&gt;, &lt;stem&gt;_errors&lt;ext&gt;, and</tspan><tspan x="1212" dy="16">the .partial of each (paths_refer_to_same_file).</tspan><tspan x="1212" dy="16">stdout has no filesystem identity: no pre-flight,</tspan><tspan x="1212" dy="16">no temp file, and --separate-errors is ignored</tspan><tspan x="1212" dy="16">with a WARN.</tspan></text>
  </g>
    <path class="edge" d="M480,1028 L480,1062"/>
    <text class="lbl" x="488" y="1044" text-anchor="start">no</text>
  <!-- decision: pre-flight no-clobber -->
  <g id="d-clobber">
    <polygon class="dec" points="480,1062 630,1100 480,1138 330,1100"/>
    <text class="t" x="480" y="1096" text-anchor="middle"><tspan x="480" dy="0">--no-clobber and a</tspan><tspan x="480" dy="16">target exists?</tspan></text>
  </g>
  <!-- branch: pre-flight clobber refusal -->
  <g id="b-clobber">
    <path class="edge" d="M630,1100 L760,1100"/>
    <text class="lbl" x="640" y="1093" text-anchor="start">yes</text>
    <rect class="act" x="760" y="1073" width="300" height="54" rx="8"/>
    <text class="t" x="772" y="1096" text-anchor="start"><tspan x="772" dy="0">MieError::ClobberRefused</tspan><tspan x="772" dy="16">(pre-flight: an early report only)</tspan></text>
    <path class="edge" d="M1060,1100 L1080,1100"/>
    <rect class="stop" x="1080" y="1086" width="80" height="28" rx="14"/>
    <text class="stopt" x="1120" y="1105" text-anchor="middle">Exit 1</text>
  </g>
    <path class="edge" d="M480,1138 L480,1172"/>
    <text class="lbl" x="488" y="1154" text-anchor="start">no</text>
  <!-- create the temp file -->
  <g id="temp">
    <rect class="act" x="260" y="1172" width="440" height="70" rx="8"/>
    <text class="t" x="480" y="1195" text-anchor="middle"><tspan x="480" dy="0">AtomicCsvFile::create: temp file BESIDE the</tspan><tspan x="480" dy="16">destination, exclusive create (L3-WRT-001):</tspan><tspan x="480" dy="16">&lt;dest&gt;.aero1553.tmp.&lt;pid&gt;.&lt;counter&gt;.&lt;nanos&gt;</tspan></text>
  </g>
  <!-- note: temp file lifetime -->
  <g id="note-temp">
    <path class="noteedge" d="M1180,1207 L1200,1207"/>
    <rect class="note" x="1200" y="1193" width="370" height="68" rx="4"/>
    <text class="nt" x="1212" y="1215" text-anchor="start" xml:space="preserve"><tspan x="1212" dy="0">Dropped without a commit, the temp is unlinked,</tspan><tspan x="1212" dy="16">so a run that fails leaves no output behind</tspan><tspan x="1212" dy="16">(L2-WRT-016).</tspan></text>
  </g>
    <path class="edge" d="M480,1242 L480,1321"/>
  <!-- find the first record -->
  <g id="scan">
    <rect class="act" x="260" y="1321" width="440" height="70" rx="8"/>
    <text class="t" x="480" y="1344" text-anchor="middle"><tspan x="480" dy="0">find_first_record: scan [0, 64 KB) in 2-byte steps</tspan><tspan x="480" dy="16">for a Type Word whose next N-1 records also</tspan><tspan x="480" dy="16">validate (L2-SYN-005 / L2-SYN-026)</tspan></text>
  </g>
  <!-- note: look-ahead -->
  <g id="note-scan">
    <path class="noteedge" d="M1180,1356 L1200,1356"/>
    <rect class="note" x="1200" y="1342" width="370" height="68" rx="4"/>
    <text class="nt" x="1212" y="1364" text-anchor="start" xml:space="preserve"><tspan x="1212" dy="0">N = decode.lookahead_records (default 2). One</tspan><tspan x="1212" dy="16">Type Word match alone gives too many false</tspan><tspan x="1212" dy="16">positives; the look-ahead makes a hit trustworthy.</tspan></text>
  </g>
    <path class="edge" d="M480,1391 L480,1425"/>
  <!-- decision: first record found? -->
  <g id="d-found">
    <polygon class="dec" points="480,1425 630,1463 480,1501 330,1463"/>
    <text class="t" x="480" y="1459" text-anchor="middle"><tspan x="480" dy="0">First record</tspan><tspan x="480" dy="16">found?</tspan></text>
  </g>
  <!-- branch: no first record -->
  <g id="b-notfound">
    <path class="edge" d="M630,1463 L760,1463"/>
    <text class="lbl" x="640" y="1456" text-anchor="start">no</text>
    <rect class="act" x="760" y="1396" width="300" height="134" rx="8"/>
    <text class="t" x="772" y="1419" text-anchor="start"><tspan x="772" dy="0">0x0000 at offset 0: empty recording -&gt;</tspan><tspan x="772" dy="16">header-only CSV, Exit 0 (L2-RDR-021)</tspan><tspan x="772" dy="16">Else diagnose_header_scan_failure:</tspan><tspan x="772" dy="16">truncated first record -&gt; strict: Exit 1</tspan><tspan x="772" dy="16">(FirstRecordTruncated), lenient: 0 rows;</tspan><tspan x="772" dy="16">nothing MIE-shaped -&gt; Exit 2</tspan><tspan x="772" dy="16">(NoValidRecords)</tspan></text>
  </g>
    <path class="edge" d="M480,1501 L480,1561"/>
    <text class="lbl" x="488" y="1517" text-anchor="start">yes</text>
  <!-- decision: homogeneous payload? -->
  <g id="d-homog">
    <polygon class="dec" points="480,1561 630,1599 480,1637 330,1599"/>
    <text class="t" x="480" y="1595" text-anchor="middle"><tspan x="480" dy="0">First 4 candidates</tspan><tspan x="480" dy="16">byte-identical?</tspan></text>
  </g>
  <!-- branch: homogeneous payload -->
  <g id="b-homog">
    <path class="edge" d="M630,1599 L760,1599"/>
    <text class="lbl" x="640" y="1592" text-anchor="start">yes</text>
    <rect class="act" x="760" y="1572" width="300" height="54" rx="8"/>
    <text class="t" x="772" y="1595" text-anchor="start"><tspan x="772" dy="0">MieError::HomogeneousPayload</tspan><tspan x="772" dy="16">(L2-SYN-018)</tspan></text>
    <path class="edge" d="M1060,1599 L1080,1599"/>
    <rect class="stop" x="1080" y="1585" width="80" height="28" rx="14"/>
    <text class="stopt" x="1120" y="1604" text-anchor="middle">Exit 2</text>
  </g>
    <path class="edge" d="M480,1637 L480,1671"/>
    <text class="lbl" x="488" y="1653" text-anchor="start">no</text>
  <!-- resolve the timestamp format -->
  <g id="probe-ts">
    <rect class="act" x="260" y="1671" width="440" height="86" rx="8"/>
    <text class="t" x="480" y="1694" text-anchor="middle"><tspan x="480" dy="0">probe_timestamp_format: score IRIG vs Standard</tspan><tspan x="480" dy="16">over up to decode.detect_records records</tspan><tspan x="480" dy="16">(default 8, L2-DEC-015); a forced --input-time-</tspan><tspan x="480" dy="16">format is sanity-checked instead (L2-DEC-013)</tspan></text>
  </g>
    <path class="edge" d="M480,1757 L480,1791"/>
  <!-- decision: ambiguous format? -->
  <g id="d-ambig">
    <polygon class="dec" points="480,1791 630,1829 480,1867 330,1829"/>
    <text class="t" x="480" y="1825" text-anchor="middle"><tspan x="480" dy="0">Ambiguous, in</tspan><tspan x="480" dy="16">strict mode?</tspan></text>
  </g>
  <!-- branch: ambiguous timestamp format -->
  <g id="b-ambig">
    <path class="edge" d="M630,1829 L760,1829"/>
    <text class="lbl" x="640" y="1822" text-anchor="start">yes</text>
    <rect class="act" x="760" y="1802" width="300" height="54" rx="8"/>
    <text class="t" x="772" y="1825" text-anchor="start"><tspan x="772" dy="0">MieError::TimestampFormatMismatch</tspan><tspan x="772" dy="16">(lenient: one WARN, continue)</tspan></text>
    <path class="edge" d="M1060,1829 L1080,1829"/>
    <rect class="stop" x="1080" y="1815" width="80" height="28" rx="14"/>
    <text class="stopt" x="1120" y="1834" text-anchor="middle">Exit 2</text>
  </g>
    <path class="edge" d="M480,1867 L480,1937"/>
    <text class="lbl" x="488" y="1883" text-anchor="start">no</text>
  <!-- loop top: next record -->
  <g id="next">
    <rect class="act" x="260" y="1937" width="440" height="38" rx="8"/>
    <text class="t" x="480" y="1960" text-anchor="middle"><tspan x="480" dy="0">Next record at the current offset</tspan></text>
    <rect class="tag" x="160" y="1944" width="90" height="24" rx="12"/>
    <text class="tagt" x="205" y="1961" text-anchor="middle">A Next</text>
  </g>
    <path class="edge" d="M480,1975 L480,2009"/>
  <!-- decision: end-of-records terminator? -->
  <g id="d-term">
    <polygon class="dec" points="480,2009 630,2047 480,2085 330,2047"/>
    <text class="t" x="480" y="2043" text-anchor="middle"><tspan x="480" dy="0">Type Word is 0x0000</tspan><tspan x="480" dy="16">(terminator)?</tspan></text>
  </g>
  <!-- branch: terminator -->
  <g id="b-term">
    <path class="edge" d="M630,2047 L760,2047"/>
    <text class="lbl" x="640" y="2040" text-anchor="start">yes</text>
    <rect class="act" x="760" y="2020" width="300" height="54" rx="8"/>
    <text class="t" x="772" y="2043" text-anchor="start"><tspan x="772" dy="0">End of records (L2-RDR-021):</tspan><tspan x="772" dy="16">leave the loop</tspan></text>
    <path class="edge" d="M1060,2047 L1080,2047"/>
    <rect class="tag" x="1080" y="2035" width="100" height="24" rx="12"/>
    <text class="tagt" x="1130" y="2052" text-anchor="middle">C Commit</text>
  </g>
    <path class="edge" d="M480,2085 L480,2119"/>
    <text class="lbl" x="488" y="2101" text-anchor="start">no</text>
  <!-- validate the record -->
  <g id="validate">
    <rect class="act" x="260" y="2119" width="440" height="54" rx="8"/>
    <text class="t" x="480" y="2142" text-anchor="middle"><tspan x="480" dy="0">sync::validate_record: shape probe plus</tspan><tspan x="480" dy="16">look-ahead over the next N-1 records</tspan></text>
  </g>
    <path class="edge" d="M480,2173 L480,2207"/>
  <!-- decision: record valid? -->
  <g id="d-valid">
    <polygon class="dec" points="480,2207 630,2237 480,2267 330,2237"/>
    <text class="t" x="480" y="2241" text-anchor="middle"><tspan x="480" dy="0">Valid?</tspan></text>
  </g>
  <!-- branch: invalid record -> recovery chain (far column) -->
  <g id="b-invalid">
    <path class="edge" d="M630,2237 L1200,2237"/>
    <text class="lbl" x="640" y="2230" text-anchor="start">no</text>
    <text class="lane" x="1200" y="2193">Sync: recovery</text>
  </g>
  <!-- recovery: strict mode -->
  <g id="r-strict">
    <rect class="act" x="1200" y="2207" width="270" height="70" rx="8"/>
    <text class="t" x="1212" y="2230" text-anchor="start"><tspan x="1212" dy="0">Strict: stop with a record error --</tspan><tspan x="1212" dy="16">UnknownTypeWord, InvalidTypeWord,</tspan><tspan x="1212" dy="16">RecordTruncated or PayloadError</tspan></text>
    <path class="edge" d="M1470,2242 L1490,2242"/>
    <rect class="stop" x="1490" y="2228" width="80" height="28" rx="14"/>
    <text class="stopt" x="1530" y="2247" text-anchor="middle">Exit 1</text>
  </g>
  <!-- recovery: lenient edge -->
  <g id="r-e1">
    <path class="edge" d="M1230,2277 L1230,2307"/>
    <text class="lbl" x="1238" y="2297" text-anchor="start">lenient</text>
  </g>
  <!-- recovery: recover_sync -->
  <g id="r-scan">
    <rect class="act" x="1200" y="2307" width="270" height="54" rx="8"/>
    <text class="t" x="1212" y="2330" text-anchor="start"><tspan x="1212" dy="0">WARN sync lost; recover_sync scans</tspan><tspan x="1212" dy="16">forward in 2-byte steps, 64 KB window</tspan></text>
  </g>
  <!-- recovery: to recovered -->
  <g id="r-e2">
    <path class="edge" d="M1230,2361 L1230,2391"/>
  </g>
  <!-- recovery: recovered -->
  <g id="r-ok">
    <rect class="act" x="1200" y="2391" width="270" height="54" rx="8"/>
    <text class="t" x="1212" y="2414" text-anchor="start"><tspan x="1212" dy="0">Recovered: INFO sync recovered;</tspan><tspan x="1212" dy="16">resume at that offset</tspan></text>
    <path class="edge" d="M1470,2418 L1490,2418"/>
    <rect class="tag" x="1490" y="2406" width="80" height="24" rx="12"/>
    <text class="tagt" x="1530" y="2423" text-anchor="middle">A Next</text>
  </g>
  <!-- recovery: not recovered edge -->
  <g id="r-e3">
    <path class="edge" d="M1230,2445 L1230,2475"/>
    <text class="lbl" x="1238" y="2465" text-anchor="start">not recovered</text>
  </g>
  <!-- recovery: truncation at EOF -->
  <g id="r-eof">
    <rect class="act" x="1200" y="2475" width="270" height="54" rx="8"/>
    <text class="t" x="1212" y="2498" text-anchor="start"><tspan x="1212" dy="0">Under 64 KB left: treat as</tspan><tspan x="1212" dy="16">truncation, stop cleanly</tspan></text>
    <path class="edge" d="M1470,2502 L1490,2502"/>
    <rect class="tag" x="1490" y="2490" width="80" height="24" rx="12"/>
    <text class="tagt" x="1530" y="2507" text-anchor="middle">C Commit</text>
  </g>
  <!-- recovery: otherwise edge -->
  <g id="r-e4">
    <path class="edge" d="M1230,2529 L1230,2559"/>
    <text class="lbl" x="1238" y="2549" text-anchor="start">otherwise</text>
  </g>
  <!-- recovery: unrecoverable -->
  <g id="r-lost">
    <rect class="act" x="1200" y="2559" width="270" height="38" rx="8"/>
    <text class="t" x="1212" y="2582" text-anchor="start"><tspan x="1212" dy="0">UnrecoverableSyncLoss (L1-EXIT-004)</tspan></text>
  </g>
  <!-- recovery: allow-partial edge -->
  <g id="r-e5">
    <path class="edge" d="M1230,2597 L1230,2627"/>
    <text class="lbl" x="1238" y="2617" text-anchor="start">--allow-partial</text>
  </g>
  <!-- recovery: commit .partial -->
  <g id="r-partial">
    <rect class="act" x="1200" y="2627" width="270" height="54" rx="8"/>
    <text class="t" x="1212" y="2650" text-anchor="start"><tspan x="1212" dy="0">commit_partial: &lt;dest&gt;.partial, main</tspan><tspan x="1212" dy="16">before errors (L2-WRT-016 / -019)</tspan></text>
    <path class="edge" d="M1470,2654 L1490,2654"/>
    <rect class="stop" x="1490" y="2640" width="80" height="28" rx="14"/>
    <text class="stopt" x="1530" y="2659" text-anchor="middle">Exit 0</text>
  </g>
  <!-- recovery: default edge -->
  <g id="r-e6">
    <path class="edge" d="M1230,2681 L1230,2711"/>
    <text class="lbl" x="1238" y="2701" text-anchor="start">otherwise</text>
  </g>
  <!-- recovery: discard -->
  <g id="r-discard">
    <rect class="act" x="1200" y="2711" width="270" height="54" rx="8"/>
    <text class="t" x="1212" y="2734" text-anchor="start"><tspan x="1212" dy="0">Temp unlinked, nothing committed</tspan><tspan x="1212" dy="16">(L2-WRT-016)</tspan></text>
    <path class="edge" d="M1470,2738 L1490,2738"/>
    <rect class="stop" x="1490" y="2724" width="80" height="28" rx="14"/>
    <text class="stopt" x="1530" y="2743" text-anchor="middle">Exit 3</text>
  </g>
    <path class="edge" d="M480,2267 L480,2301"/>
    <text class="lbl" x="488" y="2283" text-anchor="start">yes</text>
  <!-- decode the Type Word -->
  <g id="typeword">
    <rect class="act" x="260" y="2301" width="440" height="54" rx="8"/>
    <text class="t" x="480" y="2324" text-anchor="middle"><tspan x="480" dy="0">decode_type_word: bits 0-6 type, bit 7 bus,</tspan><tspan x="480" dy="16">bits 8-13 word count, bit 14 error</tspan></text>
  </g>
    <path class="edge" d="M480,2355 L480,2389"/>
  <!-- decision: SPURIOUS_DATA? -->
  <g id="d-spur">
    <polygon class="dec" points="480,2389 630,2427 480,2465 330,2427"/>
    <text class="t" x="480" y="2423" text-anchor="middle"><tspan x="480" dy="0">Type 0x20</tspan><tspan x="480" dy="16">SPURIOUS_DATA?</tspan></text>
  </g>
  <!-- branch: spurious record -->
  <g id="b-spur">
    <path class="edge" d="M630,2427 L760,2427"/>
    <text class="lbl" x="640" y="2420" text-anchor="start">yes</text>
    <rect class="act" x="760" y="2384" width="300" height="86" rx="8"/>
    <text class="t" x="772" y="2407" text-anchor="start"><tspan x="772" dy="0">No Command Word: raw bus words.</tspan><tspan x="772" dy="16">0x2000 if the previous record was an</tspan><tspan x="772" dy="16">error (continuation), else 0x2001;</tspan><tspan x="772" dy="16">prev_was_error = false</tspan></text>
    <path class="edge" d="M1060,2427 L1080,2427"/>
    <rect class="tag" x="1080" y="2415" width="100" height="24" rx="12"/>
    <text class="tagt" x="1130" y="2432" text-anchor="middle">B DELTA</text>
  </g>
    <path class="edge" d="M480,2465 L480,2499"/>
    <text class="lbl" x="488" y="2481" text-anchor="start">no</text>
  <!-- decision: error bit set? -->
  <g id="d-err">
    <polygon class="dec" points="480,2499 630,2537 480,2575 330,2537"/>
    <text class="t" x="480" y="2533" text-anchor="middle"><tspan x="480" dy="0">Bit 14 (error)</tspan><tspan x="480" dy="16">set?</tspan></text>
  </g>
  <!-- branch: errored record -->
  <g id="b-err">
    <path class="edge" d="M630,2537 L760,2537"/>
    <text class="lbl" x="640" y="2530" text-anchor="start">yes</text>
    <rect class="act" x="760" y="2478" width="300" height="118" rx="8"/>
    <text class="t" x="772" y="2501" text-anchor="start"><tspan x="772" dy="0">Command Word(s), truncated payload,</tspan><tspan x="772" dy="16">Error Word = the last word. Unknown</tspan><tspan x="772" dy="16">DDC code: strict -&gt; Exit 1</tspan><tspan x="772" dy="16">(UnknownErrorCode), lenient -&gt; WARN.</tspan><tspan x="772" dy="16">prev_was_error = true; the structural</tspan><tspan x="772" dy="16">invariants are skipped</tspan></text>
    <path class="edge" d="M1060,2537 L1080,2537"/>
    <rect class="tag" x="1080" y="2525" width="100" height="24" rx="12"/>
    <text class="tagt" x="1130" y="2542" text-anchor="middle">B DELTA</text>
  </g>
    <path class="edge" d="M480,2575 L480,2625"/>
    <text class="lbl" x="488" y="2591" text-anchor="start">no</text>
  <!-- normal record: decode -->
  <g id="normal">
    <rect class="act" x="260" y="2625" width="440" height="70" rx="8"/>
    <text class="t" x="480" y="2648" text-anchor="middle"><tspan x="480" dy="0">Decode the timestamp (IRIG or Standard) and the</tspan><tspan x="480" dy="16">Command Word; classify_message_format picks</tspan><tspan x="480" dy="16">one of the 10 non-spurious formats</tspan></text>
  </g>
    <path class="edge" d="M480,2695 L480,2825"/>
  <!-- decision: pre-extract invariant violated? -->
  <g id="d-inv1">
    <polygon class="dec" points="480,2825 630,2871 480,2917 330,2871"/>
    <text class="t" x="480" y="2859" text-anchor="middle"><tspan x="480" dy="0">Pre-extract invariant</tspan><tspan x="480" dy="16">violated?</tspan><tspan x="480" dy="16">(L2-SYN-020..022)</tspan></text>
  </g>
  <!-- branch: pre-extract violation -->
  <g id="b-inv1">
    <path class="edge" d="M630,2871 L760,2871"/>
    <text class="lbl" x="640" y="2864" text-anchor="start">yes</text>
    <rect class="act" x="760" y="2844" width="300" height="54" rx="8"/>
    <text class="t" x="772" y="2867" text-anchor="start"><tspan x="772" dy="0">strict: PayloadError -&gt; Exit 1</tspan><tspan x="772" dy="16">lenient: WARN, skip the record</tspan></text>
    <path class="edge" d="M1060,2871 L1080,2871"/>
    <rect class="tag" x="1080" y="2859" width="100" height="24" rx="12"/>
    <text class="tagt" x="1130" y="2876" text-anchor="middle">A Next</text>
  </g>
    <path class="edge" d="M480,2917 L480,2951"/>
    <text class="lbl" x="488" y="2933" text-anchor="start">no</text>
  <!-- extract the payload -->
  <g id="extract">
    <rect class="act" x="260" y="2951" width="440" height="54" rx="8"/>
    <text class="t" x="480" y="2974" text-anchor="middle"><tspan x="480" dy="0">extract_payload: Cmd2, Status, Status2 and</tspan><tspan x="480" dy="16">data words, bounded to this record</tspan></text>
  </g>
    <path class="edge" d="M480,3005 L480,3039"/>
  <!-- decision: post-extract invariant violated? -->
  <g id="d-inv2">
    <polygon class="dec" points="480,3039 630,3085 480,3131 330,3085"/>
    <text class="t" x="480" y="3073" text-anchor="middle"><tspan x="480" dy="0">Post-extract invariant</tspan><tspan x="480" dy="16">violated?</tspan><tspan x="480" dy="16">(L2-SYN-023 / 027)</tspan></text>
  </g>
  <!-- branch: post-extract violation -->
  <g id="b-inv2">
    <path class="edge" d="M630,3085 L760,3085"/>
    <text class="lbl" x="640" y="3078" text-anchor="start">yes</text>
    <rect class="act" x="760" y="3058" width="300" height="54" rx="8"/>
    <text class="t" x="772" y="3081" text-anchor="start"><tspan x="772" dy="0">strict: PayloadError -&gt; Exit 1</tspan><tspan x="772" dy="16">lenient: WARN, skip the record</tspan></text>
    <path class="edge" d="M1060,3085 L1080,3085"/>
    <rect class="tag" x="1080" y="3073" width="100" height="24" rx="12"/>
    <text class="tagt" x="1130" y="3090" text-anchor="middle">A Next</text>
  </g>
    <path class="edge" d="M480,3131 L480,3165"/>
    <text class="lbl" x="488" y="3147" text-anchor="start">no</text>
  <!-- anomaly observations -->
  <g id="anomalies">
    <rect class="act" x="260" y="3165" width="440" height="54" rx="8"/>
    <text class="t" x="480" y="3188" text-anchor="middle"><tspan x="480" dy="0">detect_record_anomalies (L2-SYN-024 / 025):</tspan><tspan x="480" dy="16">WARN, the record is kept; prev_was_error = false</tspan></text>
  </g>
    <path class="edge" d="M480,3219 L480,3289"/>
  <!-- per-RT/MSG DELTA -->
  <g id="delta">
    <rect class="act" x="260" y="3289" width="440" height="54" rx="8"/>
    <text class="t" x="480" y="3312" text-anchor="middle"><tspan x="480" dy="0">DELTA per RT/MSG (DeltaTracker::observe);</tspan><tspan x="480" dy="16">a backward step logs one WARN per key</tspan></text>
    <rect class="tag" x="160" y="3304" width="90" height="24" rx="12"/>
    <text class="tagt" x="205" y="3321" text-anchor="middle">B DELTA</text>
  </g>
    <path class="edge" d="M480,3343 L480,3413"/>
  <!-- decision: merging? -->
  <g id="d-merging">
    <polygon class="dec" points="480,3413 630,3451 480,3489 330,3451"/>
    <text class="t" x="480" y="3447" text-anchor="middle"><tspan x="480" dy="0">Merging two or</tspan><tspan x="480" dy="16">more inputs?</tspan></text>
  </g>
  <!-- branch: single input -->
  <g id="b-merging">
    <path class="edge" d="M630,3451 L760,3451"/>
    <text class="lbl" x="640" y="3444" text-anchor="start">no</text>
    <rect class="act" x="760" y="3424" width="300" height="54" rx="8"/>
    <text class="t" x="772" y="3447" text-anchor="start"><tspan x="772" dy="0">Single input: straight on</tspan><tspan x="772" dy="16">to the filter</tspan></text>
    <path class="edge" d="M1060,3451 L1080,3451"/>
    <rect class="tag" x="1080" y="3439" width="100" height="24" rx="12"/>
    <text class="tagt" x="1130" y="3456" text-anchor="middle">D Filter</text>
  </g>
    <path class="edge" d="M480,3489 L480,3523"/>
    <text class="lbl" x="488" y="3505" text-anchor="start">yes</text>
  <!-- k-way merge pop -->
  <g id="heap">
    <rect class="act" x="260" y="3523" width="440" height="54" rx="8"/>
    <text class="t" x="480" y="3546" text-anchor="middle"><tspan x="480" dy="0">Pop the earliest record across all inputs;</tspan><tspan x="480" dy="16">heap key (IRIG us, input index, sequence)</tspan></text>
  </g>
  <!-- note: merge memory bound -->
  <g id="note-heap">
    <path class="noteedge" d="M1180,3550 L1200,3550"/>
    <rect class="note" x="1200" y="3536" width="370" height="68" rx="4"/>
    <text class="nt" x="1212" y="3558" text-anchor="start" xml:space="preserve"><tspan x="1212" dy="0">At most one record per open input sits in the</tspan><tspan x="1212" dy="16">heap, so memory is O(files), not O(records)</tspan><tspan x="1212" dy="16">(L2-MRG-002).</tspan></text>
  </g>
    <path class="edge" d="M480,3577 L480,3611"/>
  <!-- decision: duplicate to collapse? -->
  <g id="d-dup">
    <polygon class="dec" points="480,3611 630,3649 480,3687 330,3649"/>
    <text class="t" x="480" y="3645" text-anchor="middle"><tspan x="480" dy="0">--collapse-duplicates,</tspan><tspan x="480" dy="16">duplicate in window?</tspan></text>
  </g>
  <!-- branch: duplicate suppressed -->
  <g id="b-dup">
    <path class="edge" d="M630,3649 L760,3649"/>
    <text class="lbl" x="640" y="3642" text-anchor="start">yes</text>
    <rect class="act" x="760" y="3622" width="300" height="54" rx="8"/>
    <text class="t" x="772" y="3645" text-anchor="start"><tspan x="772" dy="0">Suppressed: the first in heap</tspan><tspan x="772" dy="16">order survives (L2-MRG-007)</tspan></text>
    <path class="edge" d="M1060,3649 L1080,3649"/>
    <rect class="tag" x="1080" y="3637" width="100" height="24" rx="12"/>
    <text class="tagt" x="1130" y="3654" text-anchor="middle">A Next</text>
  </g>
    <path class="edge" d="M480,3687 L480,3721"/>
    <text class="lbl" x="488" y="3703" text-anchor="start">no</text>
  <!-- DELTA scope -->
  <g id="scope">
    <rect class="act" x="260" y="3721" width="440" height="70" rx="8"/>
    <text class="t" x="480" y="3744" text-anchor="middle"><tspan x="480" dy="0">DELTA: per-file (the default) keeps the reader's</tspan><tspan x="480" dy="16">value; --delta-scope global recomputes it on</tspan><tspan x="480" dy="16">the merged timeline (L2-MRG-005)</tspan></text>
  </g>
    <path class="edge" d="M480,3791 L480,3825"/>
  <!-- decision: backward step within one input? -->
  <g id="d-back">
    <polygon class="dec" points="480,3825 630,3863 480,3901 330,3863"/>
    <text class="t" x="480" y="3859" text-anchor="middle"><tspan x="480" dy="0">Steps backward within</tspan><tspan x="480" dy="16">its own input?</tspan></text>
  </g>
  <!-- branch: non-monotonic input -->
  <g id="b-back">
    <path class="edge" d="M630,3863 L760,3863"/>
    <text class="lbl" x="640" y="3856" text-anchor="start">yes</text>
    <rect class="act" x="760" y="3820" width="300" height="86" rx="8"/>
    <text class="t" x="772" y="3843" text-anchor="start"><tspan x="772" dy="0">strict: NonMonotonicInput -&gt; Exit 1</tspan><tspan x="772" dy="16">lenient: one WARN per input, the</tspan><tspan x="772" dy="16">record continues; never re-sorted</tspan><tspan x="772" dy="16">(L2-MRG-006)</tspan></text>
  </g>
    <path class="edge" d="M480,3901 L480,3971"/>
    <text class="lbl" x="488" y="3917" text-anchor="start">no</text>
  <!-- filter_messages -->
  <g id="filter">
    <rect class="act" x="260" y="3971" width="440" height="54" rx="8"/>
    <text class="t" x="480" y="3994" text-anchor="middle"><tspan x="480" dy="0">filter_messages: include AND NOT exclude</tspan><tspan x="480" dy="16">(type / RT / bus / subaddress)</tspan></text>
    <rect class="tag" x="160" y="3986" width="90" height="24" rx="12"/>
    <text class="tagt" x="205" y="4003" text-anchor="middle">D Filter</text>
  </g>
    <path class="edge" d="M480,4025 L480,4059"/>
  <!-- decision: emit? -->
  <g id="d-emit">
    <polygon class="dec" points="480,4059 630,4089 480,4119 330,4089"/>
    <text class="t" x="480" y="4093" text-anchor="middle"><tspan x="480" dy="0">Emit?</tspan></text>
  </g>
  <!-- branch: filtered out -->
  <g id="b-drop">
    <path class="edge" d="M630,4089 L760,4089"/>
    <text class="lbl" x="640" y="4082" text-anchor="start">no</text>
    <rect class="act" x="760" y="4070" width="300" height="38" rx="8"/>
    <text class="t" x="772" y="4093" text-anchor="start"><tspan x="772" dy="0">Dropped by the filter</tspan></text>
    <path class="edge" d="M1060,4089 L1080,4089"/>
    <rect class="tag" x="1080" y="4077" width="100" height="24" rx="12"/>
    <text class="tagt" x="1130" y="4094" text-anchor="middle">A Next</text>
  </g>
    <path class="edge" d="M480,4119 L480,4189"/>
    <text class="lbl" x="488" y="4135" text-anchor="start">yes</text>
  <!-- canonical row order -->
  <g id="order">
    <rect class="act" x="260" y="4189" width="440" height="86" rx="8"/>
    <text class="t" x="480" y="4212" text-anchor="middle"><tspan x="480" dy="0">order_rows: buffer the run of CONSECUTIVE</tspan><tspan x="480" dy="16">equal-TIME_STAMP records, stable-sort it by</tspan><tspan x="480" dy="16">(RT, subaddress, direction), receive first</tspan><tspan x="480" dy="16">(L1-OUT-003 / L2-WRT-021)</tspan></text>
  </g>
  <!-- note: order stage rules -->
  <g id="note-order">
    <path class="noteedge" d="M1180,4212 L1200,4212"/>
    <rect class="note" x="1200" y="4198" width="370" height="164" rx="4"/>
    <text class="nt" x="1212" y="4220" text-anchor="start" xml:space="preserve"><tspan x="1212" dy="0">Command-Word-less records (SPURIOUS_DATA) are</tspan><tspan x="1212" dy="16">pinned to the record they followed, keeping a</tspan><tspan x="1212" dy="16">0x2000 continuation next to its error.</tspan><tspan x="1212" dy="16">A run is capped by output.max_sort_group (default</tspan><tspan x="1212" dy="16">4096); at the cap it is flushed in arrival order</tspan><tspan x="1212" dy="16">with one WARN (L2-WRT-022). A cap of 1 disables</tspan><tspan x="1212" dy="16">reordering. Last stage before the writer on both</tspan><tspan x="1212" dy="16">paths; never crosses a timestamp boundary; not</tspan><tspan x="1212" dy="16">used by the dump subcommand.</tspan></text>
  </g>
    <path class="edge" d="M480,4275 L480,4422"/>
  <!-- render the row -->
  <g id="row">
    <rect class="act" x="260" y="4422" width="440" height="54" rx="8"/>
    <text class="t" x="480" y="4445" text-anchor="middle"><tspan x="480" dy="0">CsvWriter::write_message: 44 vendor columns,</tspan><tspan x="480" dy="16">then ERROR and ERROR_CODE (L2-WRT-001)</tspan></text>
  </g>
    <path class="edge" d="M480,4476 L480,4510"/>
  <!-- decision: goes to the errors CSV? -->
  <g id="d-sep">
    <polygon class="dec" points="480,4510 630,4548 480,4586 330,4548"/>
    <text class="t" x="480" y="4544" text-anchor="middle"><tspan x="480" dy="0">Errored or spurious,</tspan><tspan x="480" dy="16">separate mode, file?</tspan></text>
  </g>
  <!-- branch: errors CSV -->
  <g id="b-sep">
    <path class="edge" d="M630,4548 L760,4548"/>
    <text class="lbl" x="640" y="4541" text-anchor="start">yes</text>
    <rect class="act" x="760" y="4513" width="300" height="70" rx="8"/>
    <text class="t" x="772" y="4536" text-anchor="start"><tspan x="772" dy="0">Errors CSV &lt;stem&gt;_errors&lt;ext&gt;: its</tspan><tspan x="772" dy="16">own AtomicCsvFile, created lazily</tspan><tspan x="772" dy="16">on the first error row</tspan></text>
    <path class="edge" d="M1060,4548 L1080,4548"/>
    <rect class="tag" x="1080" y="4536" width="100" height="24" rx="12"/>
    <text class="tagt" x="1130" y="4553" text-anchor="middle">A Next</text>
  </g>
    <path class="edge" d="M480,4586 L480,4620"/>
    <text class="lbl" x="488" y="4602" text-anchor="start">no</text>
  <!-- append to the main CSV -->
  <g id="main">
    <rect class="act" x="260" y="4620" width="440" height="70" rx="8"/>
    <text class="t" x="480" y="4643" text-anchor="middle"><tspan x="480" dy="0">Append the row to the main CSV (inline, the</tspan><tspan x="480" dy="16">default, fills ERROR / ERROR_CODE). Streaming:</tspan><tspan x="480" dy="16">no row buffering, constant memory</tspan></text>
  </g>
    <path class="edge" d="M480,4690 L480,4724"/>
  <!-- decision: more records? -->
  <g id="d-more">
    <polygon class="dec" points="480,4724 630,4754 480,4784 330,4754"/>
    <text class="t" x="480" y="4758" text-anchor="middle"><tspan x="480" dy="0">More records?</tspan></text>
  </g>
  <!-- branch: loop -->
  <g id="b-more">
    <path class="edge" d="M630,4754 L760,4754"/>
    <text class="lbl" x="640" y="4747" text-anchor="start">yes</text>
    <rect class="act" x="760" y="4735" width="300" height="38" rx="8"/>
    <text class="t" x="772" y="4758" text-anchor="start"><tspan x="772" dy="0">Loop to the next record</tspan></text>
    <path class="edge" d="M1060,4754 L1080,4754"/>
    <rect class="tag" x="1080" y="4742" width="100" height="24" rx="12"/>
    <text class="tagt" x="1130" y="4759" text-anchor="middle">A Next</text>
  </g>
    <path class="edge" d="M480,4784 L480,4854"/>
    <text class="lbl" x="488" y="4800" text-anchor="start">no</text>
  <!-- commit -->
  <g id="commit">
    <rect class="act" x="260" y="4854" width="440" height="70" rx="8"/>
    <text class="t" x="480" y="4877" text-anchor="middle"><tspan x="480" dy="0">Flush and close; commit the MAIN CSV before</tspan><tspan x="480" dy="16">the errors CSV (L2-WRT-019): each temp is</tspan><tspan x="480" dy="16">moved onto its destination</tspan></text>
    <rect class="tag" x="160" y="4877" width="90" height="24" rx="12"/>
    <text class="tagt" x="205" y="4894" text-anchor="middle">C Commit</text>
  </g>
  <!-- note: one commit routine -->
  <g id="note-commit">
    <path class="noteedge" d="M1180,4889 L1200,4889"/>
    <rect class="note" x="1200" y="4875" width="370" height="68" rx="4"/>
    <text class="nt" x="1212" y="4897" text-anchor="start" xml:space="preserve"><tspan x="1212" dy="0">commit and commit_partial share one move routine</tspan><tspan x="1212" dy="16">(L3-WRT-005), so the flush, close and move rules</tspan><tspan x="1212" dy="16">cannot drift between the two.</tspan></text>
  </g>
    <path class="edge" d="M480,4924 L480,4958"/>
  <!-- decision: no-clobber refusal at commit -->
  <g id="d-clob2">
    <polygon class="dec" points="480,4958 630,4996 480,5034 330,4996"/>
    <text class="t" x="480" y="4992" text-anchor="middle"><tspan x="480" dy="0">--no-clobber and the</tspan><tspan x="480" dy="16">target now exists?</tspan></text>
  </g>
  <!-- branch: commit-time clobber refusal -->
  <g id="b-clob2">
    <path class="edge" d="M630,4996 L760,4996"/>
    <text class="lbl" x="640" y="4989" text-anchor="start">yes</text>
    <rect class="act" x="760" y="4953" width="300" height="86" rx="8"/>
    <text class="t" x="772" y="4976" text-anchor="start"><tspan x="772" dy="0">ClobberRefused (L2-WRT-023): the</tspan><tspan x="772" dy="16">move is atomic and non-replacing,</tspan><tspan x="772" dy="16">so a file that appeared after the</tspan><tspan x="772" dy="16">pre-flight is never overwritten</tspan></text>
    <path class="edge" d="M1060,4996 L1080,4996"/>
    <rect class="stop" x="1080" y="4982" width="80" height="28" rx="14"/>
    <text class="stopt" x="1120" y="5001" text-anchor="middle">Exit 1</text>
  </g>
    <path class="edge" d="M480,5034 L480,5104"/>
    <text class="lbl" x="488" y="5050" text-anchor="start">no</text>
  <!-- exit-class summary -->
  <g id="summary">
    <rect class="act" x="260" y="5104" width="440" height="38" rx="8"/>
    <text class="t" x="480" y="5127" text-anchor="middle"><tspan x="480" dy="0">INFO decode exit class: &lt;class&gt; (sync_losses=N)</tspan></text>
  </g>
  <!-- note: exit codes -->
  <g id="note-exit">
    <path class="noteedge" d="M1180,5123 L1200,5123"/>
    <rect class="note" x="1200" y="5109" width="370" height="180" rx="4"/>
    <text class="nt" x="1212" y="5131" text-anchor="start" xml:space="preserve"><tspan x="1212" dy="0">Exit codes (docs/ERROR-CATALOG.md section 1):</tspan><tspan x="1212" dy="16">0  complete, partial-recovered, empty-recording,</tspan><tspan x="1212" dy="16">   a broken pipe on stdout, or --allow-partial</tspan><tspan x="1212" dy="16">1  record, runtime or file I/O error</tspan><tspan x="1212" dy="16">2  no records, homogeneous payload, or a</tspan><tspan x="1212" dy="16">   timestamp-format mismatch (strict)</tspan><tspan x="1212" dy="16">3  unrecoverable sync loss, no --allow-partial</tspan><tspan x="1212" dy="16">4  usage error</tspan><tspan x="1212" dy="16">5  configuration error</tspan><tspan x="1212" dy="16">6  merge-incompatible inputs</tspan></text>
  </g>
    <path class="edge" d="M480,5142 L480,5176"/>
  <!-- end -->
  <g id="end">
    <rect class="stop" x="440" y="5176" width="80" height="28" rx="14"/>
    <text class="stopt" x="480" y="5195" text-anchor="middle">Exit 0</text>
  </g>
</svg>
